<svg width="64" height="64" viewBox="0 0 64 64" fill="none" xmlns="http://www.w3.org/2000/svg">
<rect width="64" height="64" rx="8" fill="#0F0F0F"/>
<path d="M39.5 18.5C39.894 18.106 40.3617 17.7935 40.8764 17.5803C41.3912 17.3671 41.9428 17.2573 42.5 17.2573C43.0572 17.2573 43.6088 17.3671 44.1236 17.5803C44.6383 17.7935 45.106 18.106 45.5 18.5C45.894 18.8939 46.2065 19.3616 46.4197 19.8764C46.6329 20.3911 46.7426 20.9428 46.7426 21.5C46.7426 22.0571 46.6329 22.6088 46.4197 23.1236C46.2065 23.6383 45.894 24.106 45.5 24.5L25.25 44.75L17 47L19.25 38.75L39.5 18.5Z" fill="white" stroke="white" stroke-width="2" stroke-linecap="round" stroke-linejoin="round"/>
</svg>
